<?xml version="1.0" encoding="utf-8"?>
<!-- Generator: Adobe Illustrator 17.1.0, SVG Export Plug-In . SVG Version: 6.00 Build 0)  -->
<!DOCTYPE svg PUBLIC "-//W3C//DTD SVG 1.1//EN" "http://www.w3.org/Graphics/SVG/1.1/DTD/svg11.dtd">
<svg version="1.1" id="Layer_1" xmlns="http://www.w3.org/2000/svg" xmlns:xlink="http://www.w3.org/1999/xlink" x="0px" y="0px"
	 viewBox="0 0 128 128" enable-background="new 0 0 128 128" xml:space="preserve">
<title>Accessories</title>
<g id="E-commerce-icons">
	<g id="Accessories" transform="translate(-1022.000000, -164.000000)">
		<g transform="translate(1022.000000, 164.000000)">
			<rect id="Rectangle" fill="#FFFFFF" fill-opacity="0" width="128" height="128"/>
			
				<linearGradient id="SVGID_1_" gradientUnits="userSpaceOnUse" x1="-442.6324" y1="444.9512" x2="-441.9761" y2="446.6977" gradientTransform="matrix(106.6667 0 0 -118.1899 47243.668 52756.3242)">
				<stop  offset="0" style="stop-color:#AE68FF"/>
				<stop  offset="1" style="stop-color:#7991FF"/>
			</linearGradient>
			<path fill="url(#SVGID_1_)" d="M41.8,10.4c1.6,2.4,1,5.8-1.5,7.4c-11.8,7.9-19,21.1-19,35.5c0,4.2,0.6,8.2,1.7,12.1l3.6-3.4
				l3.7,3.5c8.1,7.7,12.3,14,12.3,19.9c0,1.5-0.3,3-0.8,4.5c1,0.6,2.1,1.2,3.2,1.8c2.3-5.4,6.3-11.8,12-19.3l2.7-3.6l4.2-5.4l5.4,7
				c6.5,8.4,11,15.4,13.5,21.3c1.1-0.5,2.2-1.1,3.2-1.8c-0.5-1.5-0.8-3-0.8-4.5c0-5.5,3.8-11.5,11.1-18.7l1.2-1.2l3.7-3.5l3.6,3.4
				c1.1-3.8,1.7-7.9,1.7-12.1c0-14.4-7.2-27.6-18.9-35.4c-2.4-1.6-3.1-5-1.4-7.4c1.6-2.4,5-3.1,7.4-1.4
				c14.6,9.8,23.6,26.3,23.6,44.3c0,7.5-1.5,14.6-4.3,21c2.8,3.9,4.3,7.5,4.3,11c0,5.5-3.8,11.5-11.1,18.7l-1.2,1.2l-3.7,3.5
				l-3.7-3.5c-2.3-2.2-4.3-4.3-6-6.3c-2,1.2-4.2,2.4-6.4,3.3c-0.4,7.6-6.3,14.5-17.1,21.4l-1.4,0.9l-2.8,1.7l-2.8-1.7
				c-11.1-6.8-17.5-13.7-18.4-21.2l-0.1-1.1c-2.2-1-4.3-2.1-6.4-3.3c-1.3,1.6-2.9,3.2-4.6,5l-1.4,1.3l-3.7,3.5l-3.7-3.5
				c-8.1-7.7-12.3-14-12.3-19.9c0-3.4,1.5-7,4.3-11c-2.8-6.5-4.3-13.6-4.3-21c0-18,9-34.5,23.7-44.4C36.8,7.3,40.1,8,41.8,10.4z
				 M64,80.8c-7.1,9.8-10.7,16.9-10.7,20.5c0,3,3.1,7.1,10,11.8l0,0l0.7,0.5l0.7-0.5c6.5-4.5,9.6-8.4,9.9-11.4l0,0l0-0.5
				C74.7,97.7,71.1,90.7,64,80.8L64,80.8L64,80.8z M101.3,76.9l-0.9,1c-3,3.4-4.4,6-4.4,7.4c0,1.5,1.7,4.4,5.2,8.3l0,0l0.1,0.1
				l0.9-1c2.7-3.1,4.2-5.6,4.4-7l0,0l0-0.4c0-1.5-1.7-4.4-5.2-8.3l0,0L101.3,76.9z M26.7,76.9l-0.9,1c-3,3.4-4.4,6-4.4,7.4
				c0,1.5,1.7,4.4,5.2,8.3l0,0l0.1,0.1l0.9-1c2.7-3.1,4.2-5.6,4.4-7l0,0l0-0.4c0-1.5-1.7-4.4-5.2-8.3l0,0L26.7,76.9z"/>
		</g>
	</g>
</g>
</svg>
