<?xml version="1.0" encoding="utf-8"?>
<!-- Generator: Adobe Illustrator 17.1.0, SVG Export Plug-In . SVG Version: 6.00 Build 0)  -->
<!DOCTYPE svg PUBLIC "-//W3C//DTD SVG 1.1//EN" "http://www.w3.org/Graphics/SVG/1.1/DTD/svg11.dtd">
<svg version="1.1" id="Layer_1" xmlns="http://www.w3.org/2000/svg" xmlns:xlink="http://www.w3.org/1999/xlink" x="0px" y="0px"
	 viewBox="0 0 100 100" enable-background="new 0 0 100 100" xml:space="preserve">
<g>
	<g>
		<circle cx="54.5" cy="90.4" r="5"/>
		<g>
			<path d="M48.6,90.4c0.2,3.4,2.6,5.8,6,6c3.4,0.2,5.8-2.9,6-6c0.2-3.4-2.9-5.8-6-6C51.2,84.3,48.7,87.3,48.6,90.4
				c-0.1,1.3,1.9,1.3,2,0c0.3-5.1,7.7-5.1,7.9,0c0.3,5.1-7.7,5.1-7.9,0C50.5,89.1,48.5,89.1,48.6,90.4z"/>
		</g>
	</g>
	<g>
		<circle cx="25.9" cy="90.4" r="5"/>
		<g>
			<path d="M20,90.4c0.2,3.4,2.6,5.8,6,6c3.4,0.2,5.8-2.9,6-6c0.2-3.4-2.9-5.8-6-6C22.6,84.3,20.1,87.3,20,90.4
				c-0.1,1.3,1.9,1.3,2,0c0.3-5.1,7.7-5.1,7.9,0c0.3,5.1-7.7,5.1-7.9,0C21.9,89.1,19.9,89.1,20,90.4z"/>
		</g>
	</g>
</g>
<g>
	<g>
		<g>
			<path d="M17.6,10.2c-2.1,22.7-4.1,45.5-6.2,68.2c-0.1,1.6,1.5,3,3,3c18.6,0,37.1,0,55.7,0c1,0,2.1-0.6,2.6-1.5
				c6.9-12.3,13.8-24.6,20.7-37c1.1-2-0.3-4.5-2.6-4.5c-8.6,0-17.1,0-25.7,0c-3.9,0-3.9,6,0,6c8.6,0,17.1,0,25.7,0
				c-0.9-1.5-1.7-3-2.6-4.5c-6.9,12.3-13.8,24.6-20.7,37c0.9-0.5,1.7-1,2.6-1.5c-18.6,0-37.1,0-55.7,0c1,1,2,2,3,3
				c2.1-22.7,4.1-45.5,6.2-68.2C24,6.4,18,6.4,17.6,10.2L17.6,10.2z"/>
		</g>
	</g>
	<g>
		<g>
			<path d="M22.4,7.7c-3.2-2-6.4-4-9.6-6C10,0,7.5,4.4,10.2,6.1c3.2,2,6.4,4,9.6,6C22.6,13.8,25.1,9.4,22.4,7.7L22.4,7.7z"/>
		</g>
	</g>
</g>
<g>
	<g>
		<path d="M19.9,44.4c5.5,0,11,0,16.6,0c3.9,0,3.9-6,0-6c-5.5,0-11,0-16.6,0C16.1,38.4,16.1,44.4,19.9,44.4L19.9,44.4z"/>
	</g>
</g>
<g>
	<polygon points="51.5,67.7 62.4,48.9 52.3,48.9 52.3,21 49.9,21 49.9,48.9 40.6,48.9 	"/>
	<g>
		<path d="M52.4,68.2c3.6-6.3,7.3-12.6,10.9-18.8c0.4-0.7-0.1-1.5-0.9-1.5c-3.2,0-6.4,0-9.6,0c0.4,0,0.6,1.7,0.6-0.5
			c0-1.6,0-3.2,0-4.8c0-7.2,0-14.3,0-21.5c0-0.5-0.5-1-1-1c-0.8,0-1.6,0-2.4,0c-0.5,0-1,0.5-1,1c0,6.6,0,13.2,0,19.7
			c0,2.7,0,5.4,0,8.1c0-1.2,1.7-1-0.1-1c-1.2,0-2.4,0-3.6,0c-1.6,0-3.1,0-4.7,0c-0.8,0-1.2,0.8-0.9,1.5c3.6,6.3,7.3,12.6,10.9,18.8
			c0.6,1.1,2.4,0.1,1.7-1c-3.6-6.3-7.3-12.6-10.9-18.8c-0.3,0.5-0.6,1-0.9,1.5c3.1,0,6.2,0,9.3,0c0.5,0,1-0.5,1-1
			c0-4.6,0-9.3,0-13.9c0-3.3,0-6.6,0-9.9c0-1,0-1.9,0-2.9c0-1.8-1-0.1,0.2-0.1c1.6,0,0.2-1.6,0.2-0.3c0,0.9,0,1.7,0,2.6
			c0,3.2,0,6.4,0,9.6c0,5,0,9.9,0,14.9c0,0.5,0.5,1,1,1c3.3,0,6.7,0,10,0c-0.3-0.5-0.6-1-0.9-1.5c-3.6,6.3-7.3,12.6-10.9,18.8
			C50,68.3,51.7,69.3,52.4,68.2z"/>
	</g>
</g>
</svg>
