<?xml version="1.0" encoding="utf-8"?>
<!-- Generator: Adobe Illustrator 17.1.0, SVG Export Plug-In . SVG Version: 6.00 Build 0)  -->
<!DOCTYPE svg PUBLIC "-//W3C//DTD SVG 1.1//EN" "http://www.w3.org/Graphics/SVG/1.1/DTD/svg11.dtd">
<svg version="1.1" id="Layer_1" xmlns="http://www.w3.org/2000/svg" xmlns:xlink="http://www.w3.org/1999/xlink" x="0px" y="0px"
	 viewBox="0 0 1024 768" enable-background="new 0 0 1024 768" xml:space="preserve">
<title>T-shirt</title>
<rect x="46" y="74" width="922" height="624"/>
<rect x="100" y="123" fill="#FFFFFF" width="816" height="529"/>
<g>
	<g>
		<path fill="none" stroke="#000000" stroke-width="7" stroke-miterlimit="10" d="M523.1,511.5h-69.2c-9.4,57,16.9,107,16.9,107
			h52.3h52.4c0,0,26.3-50,16.9-107H523.1z"/>
		<path fill="none" stroke="#000000" stroke-width="7" stroke-miterlimit="10" d="M600.7,509.6c0-1.4-1.2-15.1-1.2-15.1
			c-0.3,0-63.7,0-63.7,0h-12.4h-0.6h-12.4c0,0-63.4,0-63.7,0c-0.1,0-1.3,13.8-1.2,15.1c6.2,0.1,42.3-0.1,77.7-0.4
			C558.4,509.5,594.5,509.7,600.7,509.6z"/>
	</g>
	<g>
		<path fill="none" stroke="#000000" stroke-width="17" stroke-miterlimit="10" d="M522.7,495.6c2.9-21.5-5.2-43.4-19.8-61.4
			c-14.6-18-35.2-32.2-57.9-43.1"/>
		<path d="M353.8,377.2c1,4.5,1.9,8.9,2.2,13.4c0.7,9.3-4.5,18.3,5.7,26c7,5.3,17.7,5.1,27.2,4.6c10.6-0.5,21.6-1.1,32.1,0.6
			c8.9,1.5,21.9,11,29.8,10.9c15.9-0.3,17.3-24.3,19.4-34.8c1.5-7.7-43.1-21.9-49.9-25.5c-18.9-10.2-29-29.2-54.2-30.8
			c-5.6-0.4-12.1,0.6-15.1,4.5c-2.2,2.8-2,6.5-1.7,9.8C350.1,363,352.1,370.1,353.8,377.2z"/>
	</g>
	<g>
		<path fill="none" stroke="#000000" stroke-width="17" stroke-miterlimit="10" d="M523.6,487.8c-2.9-21.5,5.2-43.4,19.8-61.4
			c14.6-18,35.2-32.2,57.9-43.1"/>
		<path d="M692.5,369.4c-1,4.5-1.9,8.9-2.2,13.4c-0.7,9.3,4.5,18.3-5.7,26c-7,5.3-17.7,5.1-27.2,4.6c-10.6-0.5-21.6-1.1-32.1,0.6
			c-8.9,1.5-21.9,11-29.8,10.9c-15.9-0.3-17.3-24.3-19.4-34.8c-1.5-7.7,43.1-21.9,49.9-25.5c18.9-10.2,29-29.2,54.2-30.8
			c5.6-0.4,12.1,0.6,15.1,4.5c2.2,2.8,2,6.5,1.7,9.8C696.2,355.2,694.2,362.3,692.5,369.4z"/>
	</g>
	<g>
		<path d="M634.2,278.1c0.8,6.5,1.7,12.9,3.2,19.2c3.1,13.1,11.7,24.2,4.9,37.7c-4.7,9.3-15,11.9-24.3,13.9
			c-10.4,2.2-21.2,4.5-30.6,9.7c-8,4.5-16.7,21.4-24.3,23.4c-15.4,4-26.4-29-32.6-43c-4.5-10.3,32.7-42.2,37.8-49.2
			c14.1-19.4,16.3-48.5,39.8-57.8c5.2-2.1,11.8-2.5,16.3,2.1c3.3,3.3,4.5,8.4,5.5,13.2C632,257.4,632.9,267.8,634.2,278.1z"/>
		<path fill="none" stroke="#000000" stroke-width="17" stroke-miterlimit="10" d="M526.3,455.7c-0.7-25.3,0.5-50.6,3.5-75.8
			c2.6-22.1,7.3-45.5,22.6-61.6"/>
	</g>
	<g>
		<path d="M408.9,278.1c-0.8,6.5-1.7,12.9-3.2,19.2c-3.1,13.1-11.7,24.2-4.9,37.7c4.7,9.3,15,11.9,24.3,13.9
			c10.4,2.2,21.2,4.5,30.6,9.7c8,4.5,16.7,21.4,24.3,23.4c15.4,4,26.4-29,32.6-43c4.5-10.3-32.7-42.2-37.8-49.2
			c-14.1-19.4-16.3-48.5-39.8-57.8c-5.2-2.1-11.8-2.5-16.3,2.1c-3.3,3.3-4.5,8.4-5.5,13.2C411.1,257.4,410.2,267.8,408.9,278.1z"/>
		<path fill="none" stroke="#000000" stroke-width="17" stroke-miterlimit="10" d="M516.9,455.7c0.7-25.3-0.5-50.6-3.5-75.8
			c-2.6-22.1-7.3-45.5-22.6-61.6"/>
	</g>
	<path d="M559.2,194c-5.3-6.1-12.9-10.1-17.9-16.5c-3.7-4.9-6.7-10.2-10-15.3c-1.4-2.1-2.7-4.2-4.2-6.2c-1.3-1.7-3.1-4.7-5.3-5.3
		c-2.2-0.6-5.1,3.7-6.3,5.3c-1.5,2-2.9,4.1-4.3,6.2c-3.3,5.1-6.3,10.5-10,15.3c-4.9,6.5-12.5,10.4-17.9,16.5
		c-10.4,12-10.3,29.8-7.5,45.4c1.3,7.1,3,14.1,5.1,21c2.7,8.7,6.1,17.2,10.1,25.4c4,8.2,8.7,16.1,13.9,23.6
		c2.6,3.7,5.4,7.4,8.3,10.9c1.4,1.8,2.9,3.5,4.4,5.2c0.7,0.8,1.6,1.6,2.2,2.5c0.4,0.6,0.4,1.6,1.1,2.1c0.4-0.3,0.6-1,0.9-1.5
		c0.3-0.5,1.1-1,1.6-1.5c0.6-0.6,1.1-1.2,1.6-1.8c1.1-1.2,2.2-2.5,3.2-3.7c2.1-2.5,4.1-5.1,6.1-7.7c5.4-7.3,10.3-15,14.5-23.1
		c4.2-8.1,7.9-16.4,10.8-25.1c2.9-8.6,5.2-17.4,6.8-26.3C569.5,223.8,569.6,206,559.2,194z"/>
	<line fill="none" stroke="#000000" stroke-width="13" stroke-miterlimit="10" x1="522.5" y1="389" x2="522.5" y2="299"/>
</g>
</svg>
