<?xml version="1.0" encoding="utf-8"?>
<!-- Generator: Adobe Illustrator 17.1.0, SVG Export Plug-In . SVG Version: 6.00 Build 0)  -->
<!DOCTYPE svg PUBLIC "-//W3C//DTD SVG 1.1//EN" "http://www.w3.org/Graphics/SVG/1.1/DTD/svg11.dtd">
<svg version="1.1" id="Layer_1" xmlns="http://www.w3.org/2000/svg" xmlns:xlink="http://www.w3.org/1999/xlink" x="0px" y="0px"
	 viewBox="-143 -173 436 512" enable-background="new -143 -173 436 512" xml:space="preserve">
<title>Accessories</title>
<g>
	<g>
		<path fill="none" stroke="#000000" stroke-width="7" stroke-miterlimit="10" d="M75,216.5H-6.6c-11.1,59,19.9,112,19.9,112H75
			h61.7c0,0,31-53,19.9-112H75z"/>
		<path fill="none" stroke="#000000" stroke-width="7" stroke-miterlimit="10" d="M166.5,215.5c0-1.4-1.4-15-1.5-15
			c-0.3,0-75.1,0-75.1,0H75.3h-0.7H60c0,0-74.8,0-75.1,0c-0.1,0-1.5,13.6-1.5,15c7.3,0.1,49.8-0.1,91.6-0.4
			C116.7,215.4,159.2,215.6,166.5,215.5z"/>
	</g>
	<g>
		<path fill="none" stroke="#000000" stroke-width="17" stroke-miterlimit="10" d="M74.6,200.1c3.4-22.4-6.2-45.4-23.3-64.2
			S9.7,102.3-17,90.9"/>
		<path d="M-124.6,76.4c1.2,4.7,2.2,9.3,2.6,14c0.8,9.7-5.3,19.2,6.7,27.2c8.3,5.5,20.9,5.3,32.1,4.8c12.5-0.5,25.5-1.1,37.9,0.7
			c10.6,1.5,25.9,11.5,35.1,11.4C8.6,134.1,10.2,109,12.7,98c1.8-8.1-50.8-22.8-58.8-26.7C-68.4,60.7-80.3,40.9-110,39.2
			c-6.6-0.4-14.2,0.6-17.8,4.7c-2.6,3-2.4,6.8-2,10.3C-128.9,61.6-126.5,69-124.6,76.4z"/>
	</g>
	<g>
		<path fill="none" stroke="#000000" stroke-width="17" stroke-miterlimit="10" d="M75.6,191.9c-3.4-22.4,6.2-45.4,23.3-64.2
			s41.6-33.6,68.3-45"/>
		<path d="M274.8,68.2c-1.2,4.7-2.2,9.3-2.6,14c-0.8,9.7,5.3,19.2-6.7,27.2c-8.3,5.5-20.9,5.3-32.1,4.8c-12.5-0.5-25.5-1.1-37.9,0.7
			c-10.6,1.5-25.9,11.5-35.1,11.4c-18.8-0.3-20.4-25.4-22.9-36.4c-1.8-8.1,50.8-22.8,58.8-26.7c22.3-10.7,34.2-30.5,63.9-32.2
			c6.6-0.4,14.2,0.6,17.8,4.7c2.6,3,2.4,6.8,2,10.3C279.1,53.5,276.7,60.9,274.8,68.2z"/>
	</g>
	<g>
		<path d="M206-27.1c0.9,6.8,2,13.5,3.8,20c3.6,13.7,13.8,25.3,5.7,39.4c-5.5,9.7-17.7,12.5-28.7,14.5c-12.2,2.3-25,4.7-36.1,10.2
			c-9.5,4.7-19.7,22.4-28.6,24.4C104,85.6,91.1,51.1,83.8,36.5c-5.3-10.8,38.6-44.1,44.6-51.4c16.6-20.3,19.2-50.7,46.9-60.3
			c6.2-2.2,13.9-2.6,19.2,2.2c3.8,3.5,5.4,8.8,6.5,13.8C203.5-48.7,204.5-37.8,206-27.1z"/>
		<path fill="none" stroke="#000000" stroke-width="17" stroke-miterlimit="10" d="M78.8,158.5c-0.8-26.4,0.6-52.9,4.1-79.1
			c3.1-23.1,8.6-47.5,26.7-64.4"/>
	</g>
	<g>
		<path d="M-59.6-27.1c-0.9,6.8-2,13.5-3.8,20C-67,6.6-77.1,18.2-69.1,32.3c5.5,9.7,17.7,12.5,28.7,14.5c12.2,2.3,25,4.7,36.1,10.2
			c9.5,4.7,19.7,22.4,28.6,24.4c18.2,4.2,31.1-30.3,38.4-44.9C68,25.7,24.1-7.6,18.1-14.9C1.5-35.2-1.1-65.6-28.8-75.2
			c-6.2-2.2-13.9-2.6-19.2,2.2c-3.8,3.5-5.4,8.8-6.5,13.8C-57.1-48.7-58.1-37.8-59.6-27.1z"/>
		<path fill="none" stroke="#000000" stroke-width="17" stroke-miterlimit="10" d="M67.7,158.5c0.8-26.4-0.6-52.9-4.1-79.1
			C60.5,56.2,55,31.8,36.9,15"/>
	</g>
	<path d="M117.5-115c-6.3-6.4-15.2-10.5-21.1-17.3c-4.4-5.1-7.9-10.7-11.8-16c-1.6-2.2-3.2-4.4-5-6.5c-1.5-1.8-3.6-5-6.2-5.5
		c-2.6-0.6-6,3.9-7.4,5.5c-1.8,2.1-3.4,4.3-5,6.5c-3.9,5.4-7.4,10.9-11.8,16c-5.8,6.7-14.8,10.9-21.1,17.3
		C15.9-102.5,16-83.9,19.3-67.5c1.5,7.4,3.5,14.7,6.1,21.9c3.2,9.1,7.2,18,11.9,26.6c4.7,8.6,10.2,16.8,16.4,24.6
		c3.1,3.9,6.3,7.7,9.7,11.4c1.7,1.8,3.5,3.7,5.2,5.4c0.9,0.9,1.9,1.7,2.6,2.6c0.5,0.7,0.5,1.7,1.3,2.2c0.5-0.3,0.8-1,1.1-1.5
		c0.4-0.5,1.3-1,1.9-1.5c0.7-0.6,1.3-1.3,1.9-1.9c1.3-1.3,2.5-2.6,3.8-3.9c2.5-2.6,4.9-5.3,7.2-8.1c6.4-7.6,12.1-15.7,17.1-24.1
		c5-8.4,9.3-17.2,12.8-26.2c3.5-9,6.2-18.2,8.1-27.5C129.7-83.9,129.8-102.5,117.5-115z"/>
	<line fill="none" stroke="#000000" stroke-width="13" stroke-miterlimit="10" x1="73.5" y1="88" x2="73.5" y2="-5"/>
</g>
</svg>
