<?xml version="1.0" encoding="utf-8"?>
<!-- Generator: Adobe Illustrator 17.1.0, SVG Export Plug-In . SVG Version: 6.00 Build 0)  -->
<!DOCTYPE svg PUBLIC "-//W3C//DTD SVG 1.1//EN" "http://www.w3.org/Graphics/SVG/1.1/DTD/svg11.dtd">
<svg version="1.1" id="Layer_1" xmlns="http://www.w3.org/2000/svg" xmlns:xlink="http://www.w3.org/1999/xlink" x="0px" y="0px"
	 viewBox="0 0 128 128" enable-background="new 0 0 128 128" xml:space="preserve">
<title>Accessories</title>
<g>
	<path d="M96.9,46c0,0-1.2-0.7,2.4-4.5c1.1-1.2,2.1-2.4,3.2-3.5c1.1-1.3,13.2-14.5,15.8-17.3c0-0.3,0-0.6,0-0.9
		c-1.2-0.8-2,0.5-3.1,1.6c-1.2,1.2-2.4,2.4-3.5,3.5c-4.8,4.8-10.3,9.1-15.5,13.6c-3.9,3.5-4.6,2.4-4.6,2.4c-2-0.4,1.9-4.1,1.9-4.1
		l13.2-14.6c1.5-1.6,2.9-3.2,4.4-4.9c0.5-0.6,2.7-2.5,2.3-3.2c-0.1-0.1-0.2-0.2-0.4-0.2c-1.5-0.3-3.4,2.5-4.2,3.4
		c-1.6,1.6-3.1,3.1-4.7,4.7c-4.2,4.2-8.6,8.2-13,12.2c0,0-3.8,3.9-4.1,1.9c0,0-1.2-0.7,2.4-4.5c0,0,18.4-21,18.4-21
		C100.1,14.9,92.6,20,86.1,26c-4.2,3.8-7.8,8-10.9,12.8c-3.9,6.1-2.8,14-7.2,19.8c-2.9,3.8-6.2,7.5-9.5,11c-11,11.7-23.4,22-37,30.5
		c0,0-14.5,8.9-6.8,19c0,0,9.5,7.7,18.1-7.4c5.3-7.3,10.8-14.3,16.4-21.3c4.6-5.7,9.4-11.2,14.4-16.5c4.5-4.7,9.7-11.5,16-13.4
		c5.2-1.6,11.1-0.8,16-3.2c3.1-1.5,6-4,8.5-6.3c7.8-7.1,13.8-16.2,18.6-25.6l-21.6,18.9C101.1,44.2,97.3,48,96.9,46z"/>
	<path d="M10.4,14.2C13.9,10,20.2,9,25.6,10c3.4,0.6,6.6,2.1,9.7,3.8c7.5,4.1,15.4,8.1,18.3,16.6c0.6,1.8,1,3.7,1.2,5.7
		c0.2,2.5-0.1,5,0,7.5c0.3,12.5,6.9,19.5,15.2,27.9c5.1,5.2,10.5,10.1,16,14.9c6.7,5.9,13.6,11.6,20.7,17.1c4.2,2.6,8.9,6.6,9,12
		c0,0.9-0.1,1.9-0.4,2.8c-0.3,1.2-1.3,2.6-2.4,3.2c-0.6,0.3-1.3,0.4-1.9,0.5c-1.7,0.3-3.4,0.1-5-0.5c-3.9-1.5-6.7-5.2-8.7-8.7
		c-5.3-7.3-10.8-14.3-16.4-21.3c-4.6-5.7-9.4-11.2-14.4-16.5c-8.2-8.6-14.9-15.4-27.4-16.1c-2.5-0.1-5,0-7.5-0.2
		c-1.9-0.2-3.8-0.6-5.6-1.3c-8.4-3.2-12.1-11.2-16-18.8c-1.6-3.1-2.9-6.4-3.5-9.8C5.6,23.6,6.6,17.7,10.4,14.2z"/>
</g>
</svg>
