<?xml version="1.0" encoding="utf-8"?>
<!-- Generator: Adobe Illustrator 17.1.0, SVG Export Plug-In . SVG Version: 6.00 Build 0)  -->
<!DOCTYPE svg PUBLIC "-//W3C//DTD SVG 1.1//EN" "http://www.w3.org/Graphics/SVG/1.1/DTD/svg11.dtd">
<svg version="1.1" id="Layer_1" xmlns="http://www.w3.org/2000/svg" xmlns:xlink="http://www.w3.org/1999/xlink" x="0px" y="0px"
	 viewBox="0 0 128 128" enable-background="new 0 0 128 128" xml:space="preserve">
<title>Accessories</title>
<g>
	<g>
		<g>
			<g>
				<path d="M36.8,121.6c0.6-6.5,1.1-13,1.7-19.5c0.6-6.4-9.4-6.4-10,0c-0.6,6.5-1.1,13-1.7,19.5C26.2,128,36.2,127.9,36.8,121.6
					L36.8,121.6z"/>
			</g>
		</g>
		<g>
			<g>
				<path d="M91.2,102c0.6,6.5,1.2,13,1.8,19.5c0.6,6.4,10.6,6.4,10,0c-0.6-6.5-1.2-13-1.8-19.5C100.6,95.7,90.6,95.6,91.2,102
					L91.2,102z"/>
			</g>
		</g>
	</g>
	<path fill="none" stroke="#000000" stroke-width="12" stroke-miterlimit="10" d="M90.6,77H66.1h-2.3H39.4c0,0,5.1-46.1-29.4-38.3
		L17,80.9c0,0,5.1,18.1,18.3,19.1h28.9h1.4h28.9c13.2-1,18.3-19.3,18.3-19.3l7.1-42.1C85.5,30.8,90.6,77,90.6,77z"/>
	<g>
		<g>
			<path d="M106.5,27.9c-0.1-6.6-1.9-12.4-6.3-17.3c-4.5-5-12.1-6.4-18.4-7.3C66.9,1.2,48.3,0.4,34.4,7
				c-11.9,5.7-13.2,22.5-8.7,33.4C30.6,52.3,45.2,60.6,42.5,75c-1,5.2,4.4,8,8.4,4.9c-1.5,1.2-2.5,1.1-0.6,1
				c1.3-0.1,2.6-0.1,3.9-0.1c3.6,0,7.2,0,10.8,0.1c-1.7-1.7-3.3-3.3-5-5c0,0,0,0,0,0c0,2.7,2.3,5,5,5c0.1,0,0.1,0,0.2,0
				c2.7,0,5-2.3,5-5c0,0,0,0,0,0c-1.7,1.7-3.3,3.3-5,5c3.6-0.1,7.2-0.1,10.8-0.1c1.3,0,2.6,0,3.9,0.1c1.8,0.1,1,0.2-0.6-1
				c3.9,3.1,9.3,0.3,8.4-4.9c-1.9-10.1,5.2-18.1,11-25.4C103.7,43.1,106.3,36.3,106.5,27.9c0.2-6.5-9.8-6.4-10,0
				c-0.3,9.4-5.4,14.6-10.8,21.7c-6.2,8.3-9.9,17.5-8,28c2.8-1.6,5.6-3.2,8.4-4.9c-2-1.6-3.9-1.8-6.4-1.9c-4.9-0.3-9.8-0.1-14.7,0
				c-2.7,0-5,2.2-5,5c0,0,0,0,0,0c1.7-1.7,3.3-3.3,5-5c-0.1,0-0.1,0-0.2,0c1.7,1.7,3.3,3.3,5,5c0,0,0,0,0,0c0-2.8-2.3-5-5-5
				c-4.5-0.1-9-0.1-13.5,0c-2.8,0.1-5.3,0.1-7.6,1.9c2.8,1.6,5.6,3.2,8.4,4.9c2.2-11.6-2.6-21.2-9.6-30.1
				c-6.2-7.9-11.3-15.1-8.3-25.8c1.7-5.8,7.8-7.4,13-8.3c7.1-1.3,14.4-1.3,21.6-1.2c6.2,0.1,12.5,0.6,18.4,2.2
				c6.6,1.8,9.2,7,9.3,13.4C96.6,34.3,106.6,34.3,106.5,27.9z"/>
		</g>
	</g>
</g>
</svg>
