<?xml version="1.0" encoding="utf-8"?>
<!-- Generator: Adobe Illustrator 17.1.0, SVG Export Plug-In . SVG Version: 6.00 Build 0)  -->
<!DOCTYPE svg PUBLIC "-//W3C//DTD SVG 1.1//EN" "http://www.w3.org/Graphics/SVG/1.1/DTD/svg11.dtd">
<svg version="1.1" xmlns="http://www.w3.org/2000/svg" xmlns:xlink="http://www.w3.org/1999/xlink" x="0px" y="0px"
	 viewBox="0 0 100 100" enable-background="new 0 0 100 100" xml:space="preserve">
<g id="Layer_1" display="none">
	<g display="inline">
		<line fill="none" stroke="#000000" stroke-width="8" stroke-miterlimit="10" x1="69.8" y1="59.9" x2="69.8" y2="2"/>
		<line fill="none" stroke="#000000" stroke-width="8" stroke-miterlimit="10" x1="69.8" y1="79.2" x2="69.8" y2="98.1"/>
		<path fill="none" stroke="#000000" stroke-width="8" stroke-miterlimit="10" d="M69.8,56.7c-7.2,0-13.1,5.9-13.1,13.1
			s5.9,13.1,13.1,13.1"/>
		<path fill="none" stroke="#000000" stroke-width="8" stroke-miterlimit="10" d="M69.8,56.7c7.2,0,13.1,5.9,13.1,13.1
			S77,82.9,69.8,82.9"/>
		<line fill="none" stroke="#000000" stroke-width="8" stroke-miterlimit="10" x1="30.1" y1="40" x2="30.1" y2="98.1"/>
		<line fill="none" stroke="#000000" stroke-width="8" stroke-miterlimit="10" x1="30.1" y1="20.2" x2="30.1" y2="2"/>
		<path fill="none" stroke="#000000" stroke-width="8" stroke-miterlimit="10" d="M30.1,43.4c-7.2,0-13.1-5.9-13.1-13.1
			s5.9-13.1,13.1-13.1"/>
		<path fill="none" stroke="#000000" stroke-width="8" stroke-miterlimit="10" d="M30.1,43.4c7.2,0,13.1-5.9,13.1-13.1
			s-5.9-13.1-13.1-13.1"/>
	</g>
</g>
<g id="Layer_2" display="none">
	<g id="Tag" display="inline">
		<path id="XMLID_1724_" d="M83.3,6h-33c-1.5,0-2.9,0.4-3.9,1.4L7.9,45.9c-2.1,2.1-2.1,5.6,0,7.7l38.5,38.5c1.1,1.1,2.5,1.6,3.9,1.6
			s2.8-0.5,3.9-1.6l38.3-38.5c1-1,1.4-2.4,1.4-3.9v-33C94,10.6,89.4,6,83.3,6z M84,47.4l-33.3,33L19.8,49.3L52.6,16H84V47.4z"/>
		<circle id="XMLID_1723_" cx="66.8" cy="33.2" r="5.5"/>
	</g>
</g>
<g id="Layer_3">
	<g id="Box">
		<path id="XMLID_2158_" d="M83.6,5H15.4C9.1,5,4,10.1,4,16.4v17.1c0,3.1,3,5.7,5,5.7V85c0,6,5.6,11,11.6,11h57.7
			c6,0,11.6-4.9,11.6-11V39.1c2,0,5-2.5,5-5.7V16.4C95,10.1,89.9,5,83.6,5z M16,17h67v12H16V17z M78,84H21V39h57V84z"/>
		<path id="XMLID_2160_" d="M38.1,56h22.8c3.1,0,5.7-2.4,5.7-5.5S64,45,60.9,45H38.1c-3.1,0-5.7,2.4-5.7,5.5S35,56,38.1,56z"/>
	</g>
</g>
</svg>
