<?xml version="1.0" encoding="utf-8"?>
<!-- Generator: Adobe Illustrator 17.1.0, SVG Export Plug-In . SVG Version: 6.00 Build 0)  -->
<!DOCTYPE svg PUBLIC "-//W3C//DTD SVG 1.1//EN" "http://www.w3.org/Graphics/SVG/1.1/DTD/svg11.dtd">
<svg version="1.1" xmlns="http://www.w3.org/2000/svg" xmlns:xlink="http://www.w3.org/1999/xlink" x="0px" y="0px"
	 viewBox="0 0 100 100" enable-background="new 0 0 100 100" xml:space="preserve">
<g id="Layer_1" display="none">
	<g display="inline">
		<line fill="none" stroke="#000000" stroke-width="8" stroke-miterlimit="10" x1="69.8" y1="59.9" x2="69.8" y2="2"/>
		<line fill="none" stroke="#000000" stroke-width="8" stroke-miterlimit="10" x1="69.8" y1="79.2" x2="69.8" y2="98.1"/>
		<path fill="none" stroke="#000000" stroke-width="8" stroke-miterlimit="10" d="M69.8,56.7c-7.2,0-13.1,5.9-13.1,13.1
			s5.9,13.1,13.1,13.1"/>
		<path fill="none" stroke="#000000" stroke-width="8" stroke-miterlimit="10" d="M69.8,56.7c7.2,0,13.1,5.9,13.1,13.1
			S77,82.9,69.8,82.9"/>
		<line fill="none" stroke="#000000" stroke-width="8" stroke-miterlimit="10" x1="30.1" y1="40" x2="30.1" y2="98.1"/>
		<line fill="none" stroke="#000000" stroke-width="8" stroke-miterlimit="10" x1="30.1" y1="20.2" x2="30.1" y2="2"/>
		<path fill="none" stroke="#000000" stroke-width="8" stroke-miterlimit="10" d="M30.1,43.4c-7.2,0-13.1-5.9-13.1-13.1
			s5.9-13.1,13.1-13.1"/>
		<path fill="none" stroke="#000000" stroke-width="8" stroke-miterlimit="10" d="M30.1,43.4c7.2,0,13.1-5.9,13.1-13.1
			s-5.9-13.1-13.1-13.1"/>
	</g>
</g>
<g id="Layer_2" display="none">
	<g id="Tag" display="inline">
		<path id="XMLID_1724_" d="M83.3,6h-33c-1.5,0-2.9,0.4-3.9,1.4L7.9,45.9c-2.1,2.1-2.1,5.6,0,7.7l38.5,38.5c1.1,1.1,2.5,1.6,3.9,1.6
			s2.8-0.5,3.9-1.6l38.3-38.5c1-1,1.4-2.4,1.4-3.9v-33C94,10.6,89.4,6,83.3,6z M84,47.4l-33.3,33L19.8,49.3L52.6,16H84V47.4z"/>
		<circle id="XMLID_1723_" cx="66.8" cy="33.2" r="5.5"/>
	</g>
</g>
<g id="Layer_3" display="none">
	<g id="Box" display="inline">
		<path id="XMLID_2158_" d="M83.6,5H15.4C9.1,5,4,10.1,4,16.4v17.1c0,3.1,3,5.7,5,5.7V85c0,6,5.6,11,11.6,11h57.7
			c6,0,11.6-4.9,11.6-11V39.1c2,0,5-2.5,5-5.7V16.4C95,10.1,89.9,5,83.6,5z M16,17h67v12H16V17z M78,84H21V39h57V84z"/>
		<path id="XMLID_2160_" d="M38.1,56h22.8c3.1,0,5.7-2.4,5.7-5.5S64,45,60.9,45H38.1c-3.1,0-5.7,2.4-5.7,5.5S35,56,38.1,56z"/>
	</g>
</g>
<g id="Layer_4" display="none">
	<path id="Delivery" display="inline" d="M94.3,45.8L77.1,28.6C76,27.5,74.5,27,73,27H62v-5.9C62,14.7,56.3,10,50,10H15.5
		C9.2,10,4,14.7,4,21.1v46c0,6.3,5.2,11.5,11.5,11.5c0,6.4,5.1,11.2,11.5,11.2S38.5,85,38.5,78h23c0,7,5.1,11.8,11.5,11.8
		s11.5-5,11.5-11.4c6.3,0,11.5-5,11.5-11.4V49.8C96,48.3,95.4,46.8,94.3,45.8z M16,68V22h34v46H16z M84,68H62V39h8.6L84,52.2V68z"/>
</g>
<g id="Layer_5" display="none">
	<g display="inline">
		<g>
			<g>
				<path d="M60.3,38.7c-13.2,0-26.4,0-39.7,0c-3.2,0-3.2,5,0,5c13.2,0,26.4,0,39.7,0C63.6,43.7,63.6,38.7,60.3,38.7L60.3,38.7z"/>
			</g>
		</g>
		<g>
			<g>
				<path d="M60.3,46.3c-9.8,0-19.6,0-29.4,0c-3.2,0-3.2,5,0,5c9.8,0,19.6,0,29.4,0C63.6,51.3,63.6,46.3,60.3,46.3L60.3,46.3z"/>
			</g>
		</g>
		<g>
			<g>
				<path d="M60.3,53.5c-6.9,0-13.8,0-20.7,0c-3.2,0-3.2,5,0,5c6.9,0,13.8,0,20.7,0C63.6,58.5,63.6,53.5,60.3,53.5L60.3,53.5z"/>
			</g>
		</g>
	</g>
	<g display="inline">
		<g>
			<path d="M42.7,33.3c8,0,16.1,0,24.1,0c-1.2-0.5-2.4-1-3.5-1.5c4.9,4.9,9.7,9.7,14.6,14.6c-0.5-1.2-1-2.4-1.5-3.5c0,8,0,16,0,24.1
				c1.7-1.7,3.3-3.3,5-5c-13.6,0-27.3,0-40.9,0c-6.4,0-6.4,10,0,10c13.6,0,27.3,0,40.9,0c2.7,0,5-2.3,5-5c0-6.6,0-13.2,0-19.7
				c0-2.6,0.5-5.9-1.5-7.9c-2.3-2.3-4.6-4.6-6.9-6.9c-2.5-2.5-5-5-7.5-7.5c-2-2-4.7-1.6-7.3-1.6c-6.8,0-13.7,0-20.5,0
				C36.3,23.3,36.3,33.3,42.7,33.3L42.7,33.3z"/>
		</g>
	</g>
	<g display="inline">
		<path d="M48.4,71c-0.1,0.7-0.2,1.5-0.2,2.2c0,7.2,5.8,13,13,13s13-5.8,13-13c0-0.8-0.1-1.5-0.2-2.2H48.4z"/>
	</g>
</g>
<g id="Layer_6" display="none">
	<path id="Wallet" display="inline" d="M84,47.3v-6.4c0-4.9-3.7-8.9-8.6-8.9H70V17.9c0-2.6-1.8-4.9-4.4-4.9H28.3
		C20.5,13,14,19.5,14,27.3v13.6v28.4V79c0,4.9,4.3,9,9.2,9h52.2c4.9,0,8.6-4,8.6-9v-6.4c3-1.6,5-4.6,5-8v-9.3
		C89,51.9,87,48.9,84,47.3z M28.3,23H61v9H28.3c-2.6,0-4.7-1.9-4.7-4.5S25.7,23,28.3,23z M24,79v-9.7V41h4.3h35H75v5h-4.7
		c-7.7,0-14,6.3-14,14s6.3,14,14,14H75v5H24z M80,55v10h-5h-4.7c-2.6,0-4.7-2.4-4.7-5s2.1-5,4.7-5H75H80z"/>
</g>
<g id="Layer_7" display="none">
	<g id="Cash" display="inline">
		<path id="XMLID_27_" d="M94,28.4C94,22.1,88.9,17,82.6,17H14.4C8.1,17,3,22.1,3,28.4v46.3C3,80.9,8.1,86,14.4,86h68.3
			C88.9,86,94,80.9,94,74.6V28.4z M72.3,74H24.7C23,69,19,65.6,15,63.9V39.1c4-1.7,8-6.1,9.7-10.1h47.6C74,33,78,37.4,82,39.1v24.8
			C78,65.6,74,69,72.3,74z"/>
		<path id="XMLID_38_" d="M48.5,34.4c-9.4,0-17.1,7.7-17.1,17.1s7.7,17.1,17.1,17.1s17.1-7.7,17.1-17.1S57.9,34.4,48.5,34.4z
			 M48.5,57.2c-3.1,0-5.7-2.5-5.7-5.7s2.5-5.7,5.7-5.7s5.7,2.5,5.7,5.7S51.6,57.2,48.5,57.2z"/>
	</g>
</g>
<g id="Layer_8" display="none">
	<g display="inline">
		
			<path fill-rule="evenodd" clip-rule="evenodd" fill="none" stroke="#000000" stroke-width="10" stroke-linecap="round" stroke-linejoin="round" stroke-miterlimit="22.9256" d="
			M78.7,76.3c15.8-15.9,15.8-41.7,0-57.5c-15.8-15.9-41.5-15.9-57.4,0C5.6,34.5,5.5,60,20.9,75.9c0.1,0.1,1.9,1.8,2,1.9v17l18.1-7.7
			c9.7,2.3,19.6,0.9,28.5-4"/>
		
			<polyline fill-rule="evenodd" clip-rule="evenodd" fill="none" stroke="#000000" stroke-width="10" stroke-linecap="round" stroke-linejoin="round" stroke-miterlimit="22.9256" points="
			26.8,58.5 47.3,40.1 52.7,58.5 		"/>
		
			<line fill-rule="evenodd" clip-rule="evenodd" fill="none" stroke="#000000" stroke-width="10" stroke-linecap="round" stroke-linejoin="round" stroke-miterlimit="22.9256" x1="52.7" y1="58.5" x2="73.2" y2="40.1"/>
	</g>
</g>
<g id="Layer_9">
	<g>
		
			<path fill-rule="evenodd" clip-rule="evenodd" fill="none" stroke="#000000" stroke-width="7" stroke-linecap="round" stroke-linejoin="round" stroke-miterlimit="22.9256" d="
			M75.2,70.5c3-4.2,4.9-8.9,5.7-13.8l11.1-0.4v-9.4l-11.1-0.4c-0.8-4.9-2.7-9.6-5.7-13.8l7.5-8.1L76,17.9l-8.1,7.5
			c-4.2-3-8.9-4.9-13.8-5.7L53.7,8.7h-9.4l-0.4,11.1c-4.9,0.8-9.6,2.7-13.8,5.7L22,17.9l-6.7,6.6l7.5,8.1c-3,4.2-4.9,8.9-5.7,13.8
			L6.1,46.9v9.4l11.1,0.4c0.8,4.9,2.7,9.6,5.7,13.8l-7.5,8.1l6.7,6.7l8.1-7.5c4.2,3,8.9,4.9,13.8,5.7l0.4,11.1h9.4l0.4-11.1
			c4.9-0.8,9.6-2.7,13.8-5.7l8.1,7.5l6.7-6.7L75.2,70.5z"/>
		
			<path fill-rule="evenodd" clip-rule="evenodd" fill="none" stroke="#000000" stroke-width="7" stroke-linecap="round" stroke-linejoin="round" stroke-miterlimit="22.9256" d="
			M49,60.8c5.1,0,9.2-4.1,9.2-9.2c0-5.1-4.1-9.2-9.2-9.2c-5.1,0-9.2,4.1-9.2,9.2C39.8,56.6,44,60.8,49,60.8z"/>
	</g>
</g>
<g id="Layer_10" display="none">
	<g display="inline">
		
			<polygon fill-rule="evenodd" clip-rule="evenodd" fill="none" stroke="#000000" stroke-width="5" stroke-linecap="round" stroke-linejoin="round" stroke-miterlimit="22.9256" points="
			12.6,86.4 12.6,21.5 90.5,21.5 90.5,86.4 26,86.4 		"/>
		
			<line fill-rule="evenodd" clip-rule="evenodd" fill="none" stroke="#000000" stroke-width="5" stroke-linecap="round" stroke-linejoin="round" stroke-miterlimit="22.9256" x1="25.6" y1="73.4" x2="77.5" y2="73.4"/>
		
			<line fill-rule="evenodd" clip-rule="evenodd" fill="none" stroke="#000000" stroke-width="5" stroke-linecap="round" stroke-linejoin="round" stroke-miterlimit="22.9256" x1="25.6" y1="34.1" x2="38.6" y2="34.1"/>
		
			<polyline fill-rule="evenodd" clip-rule="evenodd" fill="none" stroke="#000000" stroke-width="5" stroke-linecap="round" stroke-linejoin="round" stroke-miterlimit="22.9256" points="
			12.6,21.5 25.6,8.5 77.5,8.5 90.5,21.5 		"/>
		
			<line fill-rule="evenodd" clip-rule="evenodd" fill="none" stroke="#000000" stroke-width="5" stroke-linecap="round" stroke-linejoin="round" stroke-miterlimit="22.9256" x1="51.6" y1="21.5" x2="51.6" y2="8.5"/>
		
			<line fill-rule="evenodd" clip-rule="evenodd" fill="none" stroke="#000000" stroke-width="5" stroke-linecap="round" stroke-linejoin="round" stroke-miterlimit="22.9256" x1="25.6" y1="46.2" x2="38.6" y2="46.2"/>
	</g>
</g>
<g id="Layer_11" display="none">
	<g display="inline">
		
			<path fill-rule="evenodd" clip-rule="evenodd" fill="none" stroke="#000000" stroke-width="7" stroke-linecap="round" stroke-linejoin="round" stroke-miterlimit="22.9256" d="
			M48.9,74.6c-12-12-24-18.8-24-30.8c0-6.6,5.4-12,12-12c6,0,9,3,12,9c3-6,6-9,12-9c6.6,0,12,5.4,12,12c0,10.3-8.8,16.8-18.8,25.9
			L48.9,74.6z"/>
	</g>
</g>
<g id="Layer_12" display="none">
	<g display="inline">
		
			<path fill-rule="evenodd" clip-rule="evenodd" fill="none" stroke="#000000" stroke-width="5" stroke-linecap="round" stroke-linejoin="round" stroke-miterlimit="22.9256" d="
			M20.7,40.3c0,0,0,5.8,0,10.1c0,17.3,14,31.4,31.4,31.4c17.3,0,31.4-14,31.4-31.4c0-6.6,0.6-13.1-1.4-19.4C78,18.2,66.1,9,52,9
			C34.7,9,20.7,23,20.7,40.3c0,17.3,14,31.4,31.4,31.4c17.3,0,31.4-14,31.4-31.4"/>
		
			<path fill-rule="evenodd" clip-rule="evenodd" fill="none" stroke="#000000" stroke-width="5" stroke-linecap="round" stroke-linejoin="round" stroke-miterlimit="22.9256" d="
			M20.7,50.7c0,0,0-7.2,0,10.1c0,17.3,14,31.4,31.4,31.4c17.3,0,31.4-14,31.4-31.4c0-17.3,0-10.1,0-10.1"/>
		
			<path fill-rule="evenodd" clip-rule="evenodd" fill="none" stroke="#000000" stroke-width="5" stroke-linecap="round" stroke-linejoin="round" stroke-miterlimit="22.9256" d="
			M45.6,46.5c0,3.1,2.5,5.6,5.6,5.6c3.1,0,5.6-2.5,5.6-5.6c0-8.1-11.3-3.2-11.3-11.3c0-3.1,2.5-5.6,5.6-5.6c3.1,0,5.6,2.5,5.6,5.6"
			/>
		
			<line fill-rule="evenodd" clip-rule="evenodd" fill="none" stroke="#000000" stroke-width="5" stroke-linecap="round" stroke-linejoin="round" stroke-miterlimit="22.9256" x1="51.2" y1="56.6" x2="51.2" y2="52.2"/>
		
			<line fill-rule="evenodd" clip-rule="evenodd" fill="none" stroke="#000000" stroke-width="5" stroke-linecap="round" stroke-linejoin="round" stroke-miterlimit="22.9256" x1="51.2" y1="29.7" x2="51.2" y2="25.2"/>
	</g>
</g>
</svg>
